<svg xmlns="http://www.w3.org/2000/svg" xmlns:xlink="http://www.w3.org/1999/xlink" xmlns:lucid="lucid" width="753" height="451"><g transform="translate(-112 -161)" lucid:page-tab-id="GX5NZps2lThb"><path d="M0 0h1870.4v1323.2H0z" fill="#fff"/><path d="M220.47 272.72c0-2.76 2.24-5 5-5h150c2.76 0 5 2.24 5 5v37.24c0 2.76-2.24 5-5 5h-150c-2.76 0-5-2.24-5-5z" stroke="#000" stroke-width="2" fill="#fff"/><use xlink:href="#a" transform="matrix(1,0,0,1,225.47244094488187,272.7165354330708) translate(6.5061728395061635 23.72222222222222)"/><use xlink:href="#b" transform="matrix(1,0,0,1,225.47244094488187,272.7165354330708) translate(99.19753086419753 23.72222222222222)"/><path d="M191.72 244.1c0 13.04-10.57 23.62-23.62 23.62-13.04 0-23.62-10.58-23.62-23.63 0-13.05 10.58-23.63 23.62-23.63 13.05 0 23.62 10.58 23.62 23.62z" stroke="#000" stroke-width="2"/><path d="M346.46 339.46c0-2.76 2.24-5 5-5h150c2.76 0 5 2.24 5 5v37.24c0 2.76-2.24 5-5 5h-150c-2.76 0-5-2.24-5-5z" stroke="#000" stroke-width="2" fill="#fff"/><use xlink:href="#c" transform="matrix(1,0,0,1,351.4566929133858,339.4566929133858) translate(14.358024691358018 23.72222222222222)"/><use xlink:href="#d" transform="matrix(1,0,0,1,351.4566929133858,339.4566929133858) translate(80.4320987654321 23.72222222222222)"/><path d="M472.44 406.2c0-2.76 2.24-5 5-5h150c2.76 0 5 2.24 5 5v37.24c0 2.76-2.24 5-5 5h-150c-2.76 0-5-2.24-5-5z" stroke="#000" stroke-width="2" fill="#fff"/><use xlink:href="#e" transform="matrix(1,0,0,1,477.44094488188966,406.19685039370074) translate(1.5679012345678984 23.72222222222222)"/><use xlink:href="#d" transform="matrix(1,0,0,1,477.44094488188966,406.19685039370074) translate(93.22222222222223 23.72222222222222)"/><path d="M595.9 472.94c0-2.76 2.24-5 5-5h150c2.77 0 5 2.24 5 5v37.24c0 2.76-2.23 5-5 5h-150c-2.76 0-5-2.24-5-5z" stroke="#000" stroke-width="2" fill="#fff"/><use xlink:href="#f" transform="matrix(1,0,0,1,600.9055118110234,472.9370078740157) translate(23.197530864197518 23.72222222222222)"/><use xlink:href="#d" transform="matrix(1,0,0,1,600.9055118110234,472.9370078740157) translate(71.59259259259258 23.72222222222222)"/><path d="M168.1 269.72v18.62c0 1.66 1.35 3 3 3h29.87" stroke="#000" stroke-width="2" fill="none"/><path d="M168.07 268.72l1.03-.05v1.07h-2v-1.12z"/><path d="M216.24 291.34l-14.27 4.63v-9.27z" stroke="#000" stroke-width="2"/><path d="M300.47 316.96v38.12c0 1.66 1.35 3 3 3h23.48" stroke="#000" stroke-width="2" fill="none"/><path d="M301.47 317h-2v-1.04h2z"/><path d="M342.22 358.08l-14.27 4.63v-9.26z" stroke="#000" stroke-width="2"/><path d="M426.46 383.7v38.12c0 1.66 1.34 3 3 3h23.48" stroke="#000" stroke-width="2" fill="none"/><path d="M427.46 383.73h-2v-1.03h2z"/><path d="M468.2 424.82l-14.26 4.63v-9.27z" stroke="#000" stroke-width="2"/><path d="M552.44 450.44v38.12c0 1.66 1.34 3 3 3h20.96" stroke="#000" stroke-width="2" fill="none"/><path d="M553.44 450.47h-2v-1.03h2z"/><path d="M591.67 491.56l-14.27 4.63v-9.28z" stroke="#000" stroke-width="2"/><path d="M675.9 517.18v38.88c0 1.65 1.35 3 3 3h89" stroke="#000" stroke-width="2" fill="none"/><path d="M676.9 517.2h-2v-1.02h2z"/><path d="M783.16 559.06l-14.26 4.63v-9.28z" stroke="#000" stroke-width="2"/><path d="M834.65 559.06c0 13.04-10.58 23.62-23.63 23.62-13.04 0-23.62-10.58-23.62-23.62 0-13.05 10.58-23.63 23.62-23.63 13.05 0 23.63 10.58 23.63 23.63z" stroke="#000" stroke-width="2" fill="#fff"/><path d="M825.2 559.06c0 7.82-6.35 14.17-14.18 14.17-7.82 0-14.17-6.35-14.17-14.17 0-7.83 6.35-14.18 14.17-14.18 7.83 0 14.18 6.35 14.18 14.18z" stroke="#000" stroke-width="2"/><path d="M125.98 174.82h149.6v20l-10 10H126z" fill="#fff"/><path d="M275.6 174.82v20l-10 10H125.97" stroke="#000" stroke-width="2" fill="none"/><path d="M125.98 174.82h724.4v423.6H126z" stroke="#000" stroke-width="2" fill="none"/><g><use xlink:href="#g" transform="matrix(1,0,0,1,133.9842519684462,174.81889763777144) translate(0 18.6)"/><use xlink:href="#h" transform="matrix(1,0,0,1,133.9842519684462,174.81889763777144) translate(61.800000000000004 18.6)"/></g><defs><path d="M232-93c-1 65-40 97-104 97C67 4 28-28 28-90v-158h33c8 89-33 224 67 224 102 0 64-133 71-224h33v155" id="i"/><path d="M117-194c89-4 53 116 60 194h-32v-121c0-31-8-49-39-48C34-167 62-67 57 0H25l-1-190h30c1 10-1 24 2 32 11-22 29-35 61-36" id="j"/><path d="M24 0v-261h32V0H24" id="k"/><path d="M24-231v-30h32v30H24zM24 0v-190h32V0H24" id="l"/><path d="M96-169c-40 0-48 33-48 73s9 75 48 75c24 0 41-14 43-38l32 2c-6 37-31 61-74 61-59 0-76-41-82-99-10-93 101-131 147-64 4 7 5 14 7 22l-32 3c-4-21-16-35-41-35" id="m"/><path d="M100-194c63 0 86 42 84 106H49c0 40 14 67 53 68 26 1 43-12 49-29l28 8c-11 28-37 45-77 45C44 4 14-33 15-96c1-61 26-98 85-98zm52 81c6-60-76-77-97-28-3 7-6 17-6 28h103" id="n"/><path d="M85-194c31 0 48 13 60 33l-1-100h32l1 261h-30c-2-10 0-23-3-31C134-8 116 4 85 4 32 4 16-35 15-94c0-66 23-100 70-100zm9 24c-40 0-46 34-46 75 0 40 6 74 45 74 42 0 51-32 51-76 0-42-9-74-50-73" id="o"/><g id="a"><use transform="matrix(0.04938271604938272,0,0,0.04938271604938272,0,0)" xlink:href="#i"/><use transform="matrix(0.04938271604938272,0,0,0.04938271604938272,12.790123456790125,0)" xlink:href="#j"/><use transform="matrix(0.04938271604938272,0,0,0.04938271604938272,22.66666666666667,0)" xlink:href="#k"/><use transform="matrix(0.04938271604938272,0,0,0.04938271604938272,26.567901234567902,0)" xlink:href="#l"/><use transform="matrix(0.04938271604938272,0,0,0.04938271604938272,30.46913580246914,0)" xlink:href="#m"/><use transform="matrix(0.04938271604938272,0,0,0.04938271604938272,39.358024691358025,0)" xlink:href="#n"/><use transform="matrix(0.04938271604938272,0,0,0.04938271604938272,49.23456790123457,0)" xlink:href="#j"/><use transform="matrix(0.04938271604938272,0,0,0.04938271604938272,59.111111111111114,0)" xlink:href="#m"/><use transform="matrix(0.04938271604938272,0,0,0.04938271604938272,68,0)" xlink:href="#n"/><use transform="matrix(0.04938271604938272,0,0,0.04938271604938272,77.87654320987654,0)" xlink:href="#o"/></g><path d="M114-163C36-179 61-72 57 0H25l-1-190h30c1 12-1 29 2 39 6-27 23-49 58-41v29" id="p"/><path d="M108 0H70L1-190h34L89-25l56-165h34" id="q"/><g id="b"><use transform="matrix(0.04938271604938272,0,0,0.04938271604938272,0,0)" xlink:href="#o"/><use transform="matrix(0.04938271604938272,0,0,0.04938271604938272,9.876543209876544,0)" xlink:href="#p"/><use transform="matrix(0.04938271604938272,0,0,0.04938271604938272,15.753086419753087,0)" xlink:href="#l"/><use transform="matrix(0.04938271604938272,0,0,0.04938271604938272,19.654320987654323,0)" xlink:href="#q"/><use transform="matrix(0.04938271604938272,0,0,0.04938271604938272,28.543209876543212,0)" xlink:href="#n"/><use transform="matrix(0.04938271604938272,0,0,0.04938271604938272,38.41975308641976,0)" xlink:href="#p"/></g><path d="M30 0v-248h33v221h125V0H30" id="r"/><path d="M141-36C126-15 110 5 73 4 37 3 15-17 15-53c-1-64 63-63 125-63 3-35-9-54-41-54-24 1-41 7-42 31l-33-3c5-37 33-52 76-52 45 0 72 20 72 64v82c-1 20 7 32 28 27v20c-31 9-61-2-59-35zM48-53c0 20 12 33 32 33 41-3 63-29 60-74-43 2-92-5-92 41" id="s"/><g id="c"><use transform="matrix(0.04938271604938272,0,0,0.04938271604938272,0,0)" xlink:href="#r"/><use transform="matrix(0.04938271604938272,0,0,0.04938271604938272,9.876543209876544,0)" xlink:href="#n"/><use transform="matrix(0.04938271604938272,0,0,0.04938271604938272,19.75308641975309,0)" xlink:href="#s"/><use transform="matrix(0.04938271604938272,0,0,0.04938271604938272,29.629629629629633,0)" xlink:href="#p"/><use transform="matrix(0.04938271604938272,0,0,0.04938271604938272,35.50617283950618,0)" xlink:href="#j"/><use transform="matrix(0.04938271604938272,0,0,0.04938271604938272,45.38271604938272,0)" xlink:href="#n"/><use transform="matrix(0.04938271604938272,0,0,0.04938271604938272,55.25925925925927,0)" xlink:href="#p"/></g><g id="d"><use transform="matrix(0.04938271604938272,0,0,0.04938271604938272,0,0)" xlink:href="#k"/><use transform="matrix(0.04938271604938272,0,0,0.04938271604938272,3.901234567901235,0)" xlink:href="#l"/><use transform="matrix(0.04938271604938272,0,0,0.04938271604938272,7.80246913580247,0)" xlink:href="#m"/><use transform="matrix(0.04938271604938272,0,0,0.04938271604938272,16.69135802469136,0)" xlink:href="#n"/><use transform="matrix(0.04938271604938272,0,0,0.04938271604938272,26.567901234567902,0)" xlink:href="#j"/><use transform="matrix(0.04938271604938272,0,0,0.04938271604938272,36.44444444444445,0)" xlink:href="#m"/><use transform="matrix(0.04938271604938272,0,0,0.04938271604938272,45.33333333333334,0)" xlink:href="#n"/></g><path d="M30-248c87 1 191-15 191 75 0 78-77 80-158 76V0H30v-248zm33 125c57 0 124 11 124-50 0-59-68-47-124-48v98" id="t"/><path d="M100-194c62-1 85 37 85 99 1 63-27 99-86 99S16-35 15-95c0-66 28-99 85-99zM99-20c44 1 53-31 53-75 0-43-8-75-51-75s-53 32-53 75 10 74 51 75" id="u"/><path d="M135-143c-3-34-86-38-87 0 15 53 115 12 119 90S17 21 10-45l28-5c4 36 97 45 98 0-10-56-113-15-118-90-4-57 82-63 122-42 12 7 21 19 24 35" id="v"/><g id="e"><use transform="matrix(0.04938271604938272,0,0,0.04938271604938272,0,0)" xlink:href="#t"/><use transform="matrix(0.04938271604938272,0,0,0.04938271604938272,11.851851851851853,0)" xlink:href="#p"/><use transform="matrix(0.04938271604938272,0,0,0.04938271604938272,17.728395061728396,0)" xlink:href="#u"/><use transform="matrix(0.04938271604938272,0,0,0.04938271604938272,27.60493827160494,0)" xlink:href="#q"/><use transform="matrix(0.04938271604938272,0,0,0.04938271604938272,36.49382716049383,0)" xlink:href="#l"/><use transform="matrix(0.04938271604938272,0,0,0.04938271604938272,40.39506172839506,0)" xlink:href="#v"/><use transform="matrix(0.04938271604938272,0,0,0.04938271604938272,49.28395061728395,0)" xlink:href="#l"/><use transform="matrix(0.04938271604938272,0,0,0.04938271604938272,53.185185185185176,0)" xlink:href="#u"/><use transform="matrix(0.04938271604938272,0,0,0.04938271604938272,63.06172839506172,0)" xlink:href="#j"/><use transform="matrix(0.04938271604938272,0,0,0.04938271604938272,72.93827160493828,0)" xlink:href="#s"/><use transform="matrix(0.04938271604938272,0,0,0.04938271604938272,82.81481481481482,0)" xlink:href="#k"/></g><path d="M140-251c81 0 123 46 123 126C263-46 219 4 140 4 59 4 17-45 17-125s42-126 123-126zm0 227c63 0 89-41 89-101s-29-99-89-99c-61 0-89 39-89 99S79-25 140-24" id="w"/><path d="M115-194c55 1 70 41 70 98S169 2 115 4C84 4 66-9 55-30l1 105H24l-1-265h31l2 30c10-21 28-34 59-34zm-8 174c40 0 45-34 45-75s-6-73-45-74c-42 0-51 32-51 76 0 43 10 73 51 73" id="x"/><g id="f"><use transform="matrix(0.04938271604938272,0,0,0.04938271604938272,0,0)" xlink:href="#w"/><use transform="matrix(0.04938271604938272,0,0,0.04938271604938272,13.827160493827162,0)" xlink:href="#x"/><use transform="matrix(0.04938271604938272,0,0,0.04938271604938272,23.703703703703706,0)" xlink:href="#n"/><use transform="matrix(0.04938271604938272,0,0,0.04938271604938272,33.580246913580254,0)" xlink:href="#j"/></g><path d="M30-248c118-7 216 8 213 122C240-48 200 0 122 0H30v-248zM63-27c89 8 146-16 146-99s-60-101-146-95v194" id="y"/><g id="g"><use transform="matrix(0.05,0,0,0.05,0,0)" xlink:href="#y"/><use transform="matrix(0.05,0,0,0.05,12.950000000000001,0)" xlink:href="#p"/><use transform="matrix(0.05,0,0,0.05,18.900000000000002,0)" xlink:href="#l"/><use transform="matrix(0.05,0,0,0.05,22.85,0)" xlink:href="#q"/><use transform="matrix(0.05,0,0,0.05,31.85,0)" xlink:href="#n"/><use transform="matrix(0.05,0,0,0.05,41.85,0)" xlink:href="#p"/><use transform="matrix(0.05,0,0,0.05,47.800000000000004,0)" xlink:href="#v"/></g><g id="h"><use transform="matrix(0.05,0,0,0.05,0,0)" xlink:href="#k"/><use transform="matrix(0.05,0,0,0.05,3.95,0)" xlink:href="#l"/><use transform="matrix(0.05,0,0,0.05,7.9,0)" xlink:href="#m"/><use transform="matrix(0.05,0,0,0.05,16.9,0)" xlink:href="#n"/><use transform="matrix(0.05,0,0,0.05,26.899999999999995,0)" xlink:href="#j"/><use transform="matrix(0.05,0,0,0.05,36.9,0)" xlink:href="#m"/><use transform="matrix(0.05,0,0,0.05,45.9,0)" xlink:href="#n"/></g></defs></g></svg>